<svg width="286" height="85" fill="none" xmlns="http://www.w3.org/2000/svg"><path fill-rule="evenodd" clip-rule="evenodd" d="M0 64.246h7.107V.448H0v63.798z" fill="#1FB4BB"/><path fill-rule="evenodd" clip-rule="evenodd" d="M29.92 84.323h7.106V61.756H29.92v22.567zm0-73.855h7.106V.448H29.92v10.02z" fill="#FAB900"/><path fill-rule="evenodd" clip-rule="evenodd" d="M14.643 39.643h37.466v-7.107H14.643v7.107z" fill="#E4133F"/><path fill-rule="evenodd" clip-rule="evenodd" d="M29.823 54.823h7.107V17.357h-7.107v37.466z" fill="#E4133F"/><path fill-rule="evenodd" clip-rule="evenodd" d="M44.879 73.953h7.107V48.284h-7.107v25.67z" fill="#714D9A"/><path fill-rule="evenodd" clip-rule="evenodd" d="M44.879 23.482h7.107V.447h-7.107v23.035zM14.96 73.953h7.107V48.284H14.96v25.67z" fill="#22A6D8"/><path fill-rule="evenodd" clip-rule="evenodd" d="M14.96 23.482h7.107V.447H14.96v23.035z" fill="#714D9A"/><path fill-rule="evenodd" clip-rule="evenodd" d="M59.839 64.334h7.106V.534H59.84v63.8z" fill="#1FB4BB"/><mask id="a" maskUnits="userSpaceOnUse" x="90" y="0" width="32" height="35"><path fill-rule="evenodd" clip-rule="evenodd" d="M90.102.448h31.074V34.25H90.102V.448z" fill="#fff"/></mask><g mask="url(#a)"><path fill-rule="evenodd" clip-rule="evenodd" d="M97.17.447s.002.31.002.869v12.529l-.31 9.924h.434l7.133-10.358 9.242-12.405c.31-.372.62-.559 1.302-.559h6.203v33.804h-7.071V20.668l.31-9.986h-.434l-8.808 12.777-7.504 10.234c-.248.31-.559.558-.993.558h-6.574V.447h7.068z" fill="#6F6F6E"/></g><mask id="b" maskUnits="userSpaceOnUse" x="128" y="0" width="33" height="35"><path fill-rule="evenodd" clip-rule="evenodd" d="M128.617.448h32.372V34.25h-32.372V.448z" fill="#fff"/></mask><g mask="url(#b)"><path fill-rule="evenodd" clip-rule="evenodd" d="M135.812.447v14.266L149.768.943c.434-.372.93-.496 1.612-.496h8.872l-15.818 14.824 16.555 18.98h-8.616c-.683 0-1.179-.186-1.551-.62l-11.351-14.142-3.659 2.853v11.909h-7.195V.447h7.195z" fill="#6F6F6E"/></g><mask id="c" maskUnits="userSpaceOnUse" x="165" y="0" width="30" height="35"><path fill-rule="evenodd" clip-rule="evenodd" d="M165.397.448h29.586V34.25h-29.586V.448z" fill="#fff"/></mask><g mask="url(#c)"><path fill-rule="evenodd" clip-rule="evenodd" d="M172.592 27.552h9.365c3.66 0 5.831-1.799 5.831-4.714 0-3.039-2.171-4.713-5.831-4.713h-9.365v9.427zM191.075.448h.868v6.698h-19.351v4.342h9.365c7.134 0 13.026 4.341 13.026 11.35 0 6.947-5.892 11.413-13.026 11.413h-16.56V.448h25.678z" fill="#6F6F6E"/></g><mask id="d" maskUnits="userSpaceOnUse" x="215" y="0" width="54" height="35"><path fill-rule="evenodd" clip-rule="evenodd" d="M215.821.448h52.472V34.25h-52.472V.448z" fill="#fff"/></mask><g mask="url(#d)"><path fill-rule="evenodd" clip-rule="evenodd" d="M258.866 16.586c2.047 0 3.659-1.302 3.659-3.535s-1.612-3.536-3.659-3.536c-2.046 0-3.659 1.303-3.659 3.536s1.55 3.535 3.659 3.535zm-8.746 9.043v-.868h17.615v5.644H250.12V25.63zm8.746-3.584c-5.334 0-9.428-3.536-9.428-8.994s4.094-8.994 9.428-8.994c5.334 0 9.427 3.536 9.427 8.994s-4.093 8.994-9.427 8.994zM240.692 34.25c-.434 0-.743-.186-.93-.434l-8.497-10.73-8.559-12.095-.31.062.433 10.42v11.908l.001.869h-7.009V.447h5.645c.433 0 .93.187 1.177.434l9.304 11.785 7.815 11.04.311-.061-.435-10.482V.447h7.009v33.804h-5.955z" fill="#6F6F6E"/></g><mask id="e" maskUnits="userSpaceOnUse" x="272" y="0" width="14" height="35"><path fill-rule="evenodd" clip-rule="evenodd" d="M272.573.448h13.087V34.25h-13.087V.448z" fill="#fff"/></mask><g mask="url(#e)"><path fill-rule="evenodd" clip-rule="evenodd" d="M285.66 34.25h-7.071V7.085h-6.016V.448h13.087V34.25z" fill="#6F6F6E"/></g></svg>